# xmcd
#
# Track frame offsets:
#	150
#	1945
#	8295
#	18775
#	32345
#	40745
#	55175
#	64705
#	75157
#	84895
#	88132
#	99900
#	110052
#	123867
#	142067
#	152330
#	156675
#	166257
#	179740
#
# Disc length: 2536 seconds
#
# Revision: 0
# Processed by: cddbd v1.4PL0 Copyright (c) Steve Scherf et al.
# Submitted via: dBpowerAMP V4.0
#
DISCID=d209e613
DTITLE=Various Artist - Live Again!WCBYBristolFarm&Fun
DYEAR=2003
DGENRE=General Country
TTITLE0=Intro/Stanley Brothers
TTITLE1=Cotton Eyed Joe/Stanley Brothers
TTITLE2=Our Darling's Gone/Stanley Brothers
TTITLE3=Molly and Tenbrooks/Stanley Brothers
TTITLE4=Cacklin' Hen/Stanley Brothers
TTITLE5=Little Glass Of Wine/Stanley Brothers
TTITLE6=Blue Moon Of Kentucky/Stanley Brothers
TTITLE7=Lonely Tombs/Stanley Brothers
TTITLE8=Orange Blossom Special/Stanley Brothers
TTITLE9=Intro/Carl and J.P. Sauceman
TTITLE10=Pretty Flowers/Carl and J.P. Sauceman
TTITLE11=Road Of Sadness/Carl and J.P. Sauceman
TTITLE12=Baby Blue Eyes/Carl and J.P. Sauceman
TTITLE13=The Lifeboat Soon Is Coming/Carl and J.P. Sauceman
TTITLE14=Letter That Broke My Heart/Carl and J.P. Sauceman
TTITLE15=Outro/Carl and J.P. Sauceman
TTITLE16=Roll In My Sweet Baby's Arms/Flatt and Scruggs
TTITLE17=Rainbow Of My Dream/Flatt and Scruggs
TTITLE18=That Home Above/Flatt and Scruggs
EXTD=Submitted by William Hale
EXTT0=
EXTT1=
EXTT2=
EXTT3=
EXTT4=
EXTT5=
EXTT6=
EXTT7=
EXTT8=
EXTT9=
EXTT10=
EXTT11=
EXTT12=
EXTT13=
EXTT14=
EXTT15=
EXTT16=
EXTT17=
EXTT18=
PLAYORDER=
